<svg width="120" height="120" viewBox="0 0 120 120" fill="none" xmlns="http://www.w3.org/2000/svg">
<circle cx="60" cy="60" r="60" fill="#51DFB4"/>
<path d="M13.32 65C13.1387 65 12.9947 64.952 12.888 64.856C12.7813 64.76 12.7067 64.648 12.664 64.52L9.4 54.28C9.37867 54.2267 9.368 54.1787 9.368 54.136C9.368 54.0507 9.4 53.976 9.464 53.912C9.53867 53.8373 9.624 53.8 9.72 53.8H11.704C11.8747 53.8 12.008 53.848 12.104 53.944C12.2 54.04 12.2587 54.1307 12.28 54.216L14.536 61.608L16.808 54.216C16.84 54.1307 16.8987 54.04 16.984 53.944C17.08 53.848 17.2133 53.8 17.384 53.8H19.368C19.464 53.8 19.544 53.8373 19.608 53.912C19.6827 53.976 19.72 54.0507 19.72 54.136C19.72 54.1787 19.7093 54.2267 19.688 54.28L16.424 64.52C16.3813 64.648 16.3067 64.76 16.2 64.856C16.104 64.952 15.96 65 15.768 65H13.32ZM21.2034 65C21.086 65 20.99 64.9627 20.9154 64.888C20.8407 64.8133 20.8034 64.7173 20.8034 64.6V57.08C20.8034 56.9627 20.8407 56.8667 20.9154 56.792C20.99 56.7173 21.086 56.68 21.2034 56.68H23.0914C23.198 56.68 23.2887 56.7173 23.3634 56.792C23.4487 56.8667 23.4914 56.9627 23.4914 57.08V64.6C23.4914 64.7173 23.4487 64.8133 23.3634 64.888C23.2887 64.9627 23.198 65 23.0914 65H21.2034ZM21.1874 55.48C21.07 55.48 20.974 55.4427 20.8994 55.368C20.8247 55.2933 20.7874 55.1973 20.7874 55.08V53.656C20.7874 53.5387 20.8247 53.4427 20.8994 53.368C20.974 53.2827 21.07 53.24 21.1874 53.24H23.0914C23.2087 53.24 23.3047 53.2827 23.3794 53.368C23.4647 53.4427 23.5074 53.5387 23.5074 53.656V55.08C23.5074 55.1973 23.4647 55.2933 23.3794 55.368C23.3047 55.4427 23.2087 55.48 23.0914 55.48H21.1874ZM29.284 65.16C28.0253 65.16 27.0227 64.8187 26.276 64.136C25.5293 63.4533 25.14 62.44 25.108 61.096C25.108 61.0213 25.108 60.9253 25.108 60.808C25.108 60.6907 25.108 60.6 25.108 60.536C25.14 59.6933 25.3267 58.9733 25.668 58.376C26.02 57.768 26.5 57.3093 27.108 57C27.7267 56.68 28.4467 56.52 29.268 56.52C30.2067 56.52 30.98 56.7067 31.588 57.08C32.2067 57.4533 32.6707 57.96 32.98 58.6C33.2893 59.24 33.444 59.9707 33.444 60.792V61.176C33.444 61.2933 33.4013 61.3893 33.316 61.464C33.2413 61.5387 33.1507 61.576 33.044 61.576H27.924C27.924 61.5867 27.924 61.6027 27.924 61.624C27.924 61.6453 27.924 61.6667 27.924 61.688C27.9347 61.9973 27.988 62.28 28.084 62.536C28.18 62.792 28.3293 62.9947 28.532 63.144C28.7347 63.2933 28.98 63.368 29.268 63.368C29.4813 63.368 29.6573 63.336 29.796 63.272C29.9453 63.1973 30.068 63.1173 30.164 63.032C30.26 62.936 30.3347 62.856 30.388 62.792C30.484 62.6853 30.5587 62.6213 30.612 62.6C30.676 62.568 30.772 62.552 30.9 62.552H32.884C32.9907 62.552 33.076 62.584 33.14 62.648C33.2147 62.7013 33.2467 62.7813 33.236 62.888C33.2253 63.0693 33.1347 63.288 32.964 63.544C32.7933 63.8 32.5427 64.056 32.212 64.312C31.892 64.5573 31.4867 64.76 30.996 64.92C30.5053 65.08 29.9347 65.16 29.284 65.16ZM27.924 59.992H30.628V59.96C30.628 59.6187 30.5747 59.32 30.468 59.064C30.372 58.808 30.2173 58.6107 30.004 58.472C29.8013 58.3333 29.556 58.264 29.268 58.264C28.98 58.264 28.7347 58.3333 28.532 58.472C28.34 58.6107 28.1907 58.808 28.084 59.064C27.9773 59.32 27.924 59.6187 27.924 59.96V59.992ZM37.014 65C36.854 65 36.7367 64.9627 36.662 64.888C36.5873 64.8133 36.5287 64.7173 36.486 64.6L34.182 57.192C34.1607 57.1387 34.15 57.0853 34.15 57.032C34.15 56.936 34.1873 56.856 34.262 56.792C34.3367 56.7173 34.422 56.68 34.518 56.68H36.166C36.3047 56.68 36.4113 56.7173 36.486 56.792C36.5713 56.8667 36.6247 56.9413 36.646 57.016L37.99 61.592L39.43 57.032C39.4513 56.9573 39.4993 56.8827 39.574 56.808C39.6593 56.7227 39.7767 56.68 39.926 56.68H40.982C41.1313 56.68 41.2433 56.7227 41.318 56.808C41.4033 56.8827 41.4567 56.9573 41.478 57.032L42.918 61.592L44.262 57.016C44.2833 56.9413 44.3313 56.8667 44.406 56.792C44.4913 56.7173 44.6033 56.68 44.742 56.68H46.39C46.486 56.68 46.566 56.7173 46.63 56.792C46.7047 56.856 46.742 56.936 46.742 57.032C46.742 57.0853 46.7367 57.1387 46.726 57.192L44.422 64.6C44.39 64.7173 44.3313 64.8133 44.246 64.888C44.1713 64.9627 44.054 65 43.894 65H42.454C42.3047 65 42.1873 64.9627 42.102 64.888C42.0167 64.8133 41.958 64.7173 41.926 64.6L40.454 60.216L38.982 64.6C38.95 64.7173 38.8913 64.8133 38.806 64.888C38.7207 64.9627 38.6033 65 38.454 65H37.014ZM51.7231 65C51.6058 65 51.5098 64.9627 51.4351 64.888C51.3605 64.8133 51.3231 64.7173 51.3231 64.6V54.2C51.3231 54.0827 51.3605 53.9867 51.4351 53.912C51.5098 53.8373 51.6058 53.8 51.7231 53.8H56.2031C57.0885 53.8 57.8565 53.9387 58.5071 54.216C59.1685 54.4827 59.6805 54.888 60.0431 55.432C60.4165 55.976 60.6031 56.664 60.6031 57.496C60.6031 58.3173 60.4165 58.9947 60.0431 59.528C59.6805 60.0613 59.1685 60.456 58.5071 60.712C57.8565 60.968 57.0885 61.096 56.2031 61.096H54.2991V64.6C54.2991 64.7173 54.2565 64.8133 54.1711 64.888C54.0965 64.9627 54.0005 65 53.8831 65H51.7231ZM54.2511 58.888H56.1231C56.5818 58.888 56.9445 58.7707 57.2111 58.536C57.4885 58.3013 57.6271 57.944 57.6271 57.464C57.6271 57.0587 57.5098 56.7173 57.2751 56.44C57.0405 56.1627 56.6565 56.024 56.1231 56.024H54.2511V58.888ZM62.3596 65C62.2423 65 62.1463 64.9627 62.0716 64.888C61.997 64.8133 61.9596 64.7173 61.9596 64.6V57.08C61.9596 56.9733 61.997 56.8827 62.0716 56.808C62.1463 56.7227 62.2423 56.68 62.3596 56.68H64.1996C64.317 56.68 64.413 56.7227 64.4876 56.808C64.5623 56.8827 64.5996 56.9733 64.5996 57.08V57.72C64.8876 57.3893 65.229 57.1333 65.6236 56.952C66.029 56.7707 66.4823 56.68 66.9836 56.68H67.6876C67.7943 56.68 67.885 56.7173 67.9596 56.792C68.045 56.8667 68.0876 56.9627 68.0876 57.08V58.728C68.0876 58.8347 68.045 58.9307 67.9596 59.016C67.885 59.0907 67.7943 59.128 67.6876 59.128H66.1356C65.6983 59.128 65.357 59.2507 65.1116 59.496C64.877 59.7307 64.7596 60.0667 64.7596 60.504V64.6C64.7596 64.7173 64.717 64.8133 64.6316 64.888C64.557 64.9627 64.461 65 64.3436 65H62.3596ZM73.0988 65.16C72.2028 65.16 71.4454 65.016 70.8268 64.728C70.2188 64.44 69.7494 64.0293 69.4188 63.496C69.0988 62.952 68.9174 62.3067 68.8748 61.56C68.8641 61.3467 68.8588 61.1067 68.8588 60.84C68.8588 60.5627 68.8641 60.3227 68.8748 60.12C68.9174 59.3627 69.1094 58.7173 69.4508 58.184C69.7921 57.6507 70.2668 57.24 70.8748 56.952C71.4934 56.664 72.2348 56.52 73.0988 56.52C73.9734 56.52 74.7148 56.664 75.3228 56.952C75.9414 57.24 76.4214 57.6507 76.7628 58.184C77.1041 58.7173 77.2961 59.3627 77.3388 60.12C77.3494 60.3227 77.3548 60.5627 77.3548 60.84C77.3548 61.1067 77.3494 61.3467 77.3388 61.56C77.2961 62.3067 77.1094 62.952 76.7788 63.496C76.4588 64.0293 75.9894 64.44 75.3708 64.728C74.7628 65.016 74.0054 65.16 73.0988 65.16ZM73.0988 63.208C73.5788 63.208 73.9254 63.064 74.1388 62.776C74.3628 62.488 74.4908 62.056 74.5228 61.48C74.5334 61.32 74.5388 61.1067 74.5388 60.84C74.5388 60.5733 74.5334 60.36 74.5228 60.2C74.4908 59.6347 74.3628 59.208 74.1388 58.92C73.9254 58.6213 73.5788 58.472 73.0988 58.472C72.6294 58.472 72.2828 58.6213 72.0588 58.92C71.8348 59.208 71.7121 59.6347 71.6908 60.2C71.6801 60.36 71.6748 60.5733 71.6748 60.84C71.6748 61.1067 71.6801 61.32 71.6908 61.48C71.7121 62.056 71.8348 62.488 72.0588 62.776C72.2828 63.064 72.6294 63.208 73.0988 63.208ZM77.5364 68.04C77.419 68.04 77.323 68.0027 77.2484 67.928C77.1737 67.8533 77.1364 67.7573 77.1364 67.64V66.344C77.1364 66.2267 77.1737 66.1307 77.2484 66.056C77.323 65.9813 77.419 65.944 77.5364 65.944H78.1284C78.395 65.944 78.5977 65.8907 78.7364 65.784C78.875 65.688 78.971 65.5493 79.0244 65.368C79.0777 65.1973 79.1044 65 79.1044 64.776V57.08C79.1044 56.9627 79.1417 56.8667 79.2164 56.792C79.3017 56.7173 79.3977 56.68 79.5044 56.68H81.4884C81.6057 56.68 81.7017 56.7173 81.7764 56.792C81.851 56.8667 81.8884 56.9627 81.8884 57.08V64.84C81.8884 65.5333 81.7497 66.1147 81.4724 66.584C81.2057 67.064 80.8164 67.4267 80.3044 67.672C79.7924 67.9173 79.1684 68.04 78.4324 68.04H77.5364ZM79.4884 55.48C79.3817 55.48 79.2857 55.4427 79.2004 55.368C79.1257 55.2933 79.0884 55.1973 79.0884 55.08V53.656C79.0884 53.5387 79.1257 53.4427 79.2004 53.368C79.2857 53.2827 79.3817 53.24 79.4884 53.24H81.5044C81.611 53.24 81.7017 53.2827 81.7764 53.368C81.8617 53.4427 81.9044 53.5387 81.9044 53.656V55.08C81.9044 55.1973 81.8617 55.2933 81.7764 55.368C81.7017 55.4427 81.611 55.48 81.5044 55.48H79.4884ZM87.6903 65.16C86.4316 65.16 85.4289 64.8187 84.6823 64.136C83.9356 63.4533 83.5463 62.44 83.5143 61.096C83.5143 61.0213 83.5143 60.9253 83.5143 60.808C83.5143 60.6907 83.5143 60.6 83.5143 60.536C83.5463 59.6933 83.7329 58.9733 84.0743 58.376C84.4263 57.768 84.9063 57.3093 85.5143 57C86.1329 56.68 86.8529 56.52 87.6743 56.52C88.6129 56.52 89.3863 56.7067 89.9943 57.08C90.6129 57.4533 91.0769 57.96 91.3863 58.6C91.6956 59.24 91.8503 59.9707 91.8503 60.792V61.176C91.8503 61.2933 91.8076 61.3893 91.7222 61.464C91.6476 61.5387 91.5569 61.576 91.4503 61.576H86.3303C86.3303 61.5867 86.3303 61.6027 86.3303 61.624C86.3303 61.6453 86.3303 61.6667 86.3303 61.688C86.3409 61.9973 86.3943 62.28 86.4903 62.536C86.5863 62.792 86.7356 62.9947 86.9383 63.144C87.1409 63.2933 87.3863 63.368 87.6743 63.368C87.8876 63.368 88.0636 63.336 88.2023 63.272C88.3516 63.1973 88.4743 63.1173 88.5703 63.032C88.6663 62.936 88.7409 62.856 88.7943 62.792C88.8903 62.6853 88.9649 62.6213 89.0183 62.6C89.0823 62.568 89.1783 62.552 89.3063 62.552H91.2903C91.3969 62.552 91.4823 62.584 91.5463 62.648C91.6209 62.7013 91.6529 62.7813 91.6423 62.888C91.6316 63.0693 91.5409 63.288 91.3703 63.544C91.1996 63.8 90.9489 64.056 90.6183 64.312C90.2983 64.5573 89.8929 64.76 89.4023 64.92C88.9116 65.08 88.3409 65.16 87.6903 65.16ZM86.3303 59.992H89.0343V59.96C89.0343 59.6187 88.9809 59.32 88.8743 59.064C88.7783 58.808 88.6236 58.6107 88.4103 58.472C88.2076 58.3333 87.9623 58.264 87.6743 58.264C87.3863 58.264 87.1409 58.3333 86.9383 58.472C86.7463 58.6107 86.5969 58.808 86.4903 59.064C86.3836 59.32 86.3303 59.6187 86.3303 59.96V59.992ZM97.1743 65.16C96.3849 65.16 95.6863 65.016 95.0783 64.728C94.4703 64.44 93.9849 64.024 93.6223 63.48C93.2703 62.9253 93.0783 62.264 93.0463 61.496C93.0356 61.3253 93.0303 61.112 93.0303 60.856C93.0303 60.5893 93.0356 60.3707 93.0463 60.2C93.0783 59.4213 93.2703 58.76 93.6223 58.216C93.9743 57.6613 94.4543 57.24 95.0623 56.952C95.6809 56.664 96.3849 56.52 97.1743 56.52C97.9103 56.52 98.5396 56.6267 99.0623 56.84C99.5849 57.0427 100.012 57.2987 100.342 57.608C100.673 57.9173 100.918 58.2373 101.078 58.568C101.249 58.888 101.34 59.1707 101.35 59.416C101.361 59.5227 101.324 59.6187 101.238 59.704C101.153 59.7787 101.057 59.816 100.95 59.816H98.9183C98.8009 59.816 98.7103 59.7893 98.6463 59.736C98.5823 59.6827 98.5236 59.6027 98.4703 59.496C98.3423 59.1653 98.1769 58.9307 97.9743 58.792C97.7823 58.6533 97.5316 58.584 97.2223 58.584C96.7956 58.584 96.4649 58.7227 96.2303 59C96.0063 59.2773 95.8836 59.704 95.8623 60.28C95.8516 60.7067 95.8516 61.0853 95.8623 61.416C95.8836 62.0027 96.0063 62.4293 96.2303 62.696C96.4649 62.9627 96.7956 63.096 97.2223 63.096C97.5529 63.096 97.8143 63.0267 98.0063 62.888C98.1983 62.7493 98.3529 62.5147 98.4703 62.184C98.5236 62.0773 98.5823 61.9973 98.6463 61.944C98.7103 61.8907 98.8009 61.864 98.9183 61.864H100.95C101.057 61.864 101.153 61.9067 101.238 61.992C101.324 62.0667 101.361 62.1573 101.35 62.264C101.34 62.4453 101.286 62.6587 101.19 62.904C101.094 63.1387 100.945 63.3893 100.742 63.656C100.54 63.9227 100.273 64.1733 99.9423 64.408C99.6223 64.632 99.2329 64.8133 98.7743 64.952C98.3156 65.0907 97.7823 65.16 97.1743 65.16ZM107.044 65C106.361 65 105.769 64.8933 105.268 64.68C104.777 64.456 104.398 64.1147 104.132 63.656C103.865 63.1867 103.732 62.584 103.732 61.848V58.776H102.484C102.366 58.776 102.265 58.7387 102.18 58.664C102.105 58.5893 102.068 58.4933 102.068 58.376V57.08C102.068 56.9627 102.105 56.8667 102.18 56.792C102.265 56.7173 102.366 56.68 102.484 56.68H103.732V54.04C103.732 53.9227 103.769 53.8267 103.844 53.752C103.929 53.6773 104.025 53.64 104.132 53.64H105.988C106.105 53.64 106.201 53.6773 106.276 53.752C106.35 53.8267 106.388 53.9227 106.388 54.04V56.68H108.388C108.505 56.68 108.601 56.7173 108.676 56.792C108.75 56.8667 108.788 56.9627 108.788 57.08V58.376C108.788 58.4933 108.75 58.5893 108.676 58.664C108.601 58.7387 108.505 58.776 108.388 58.776H106.388V61.624C106.388 61.9867 106.457 62.2747 106.596 62.488C106.734 62.7013 106.969 62.808 107.3 62.808H108.532C108.649 62.808 108.745 62.8453 108.82 62.92C108.894 62.9947 108.932 63.0907 108.932 63.208V64.6C108.932 64.7173 108.894 64.8133 108.82 64.888C108.745 64.9627 108.649 65 108.532 65H107.044Z" fill="#1F0018"/>
</svg>
